<svg width="22" height="20" viewBox="0 0 22 20" fill="none" xmlns="http://www.w3.org/2000/svg">
<path fill-rule="evenodd" clip-rule="evenodd" d="M18.0457 6.09816C18.4378 6.18296 18.8159 6.32034 19.1625 6.51694C21.0992 7.62242 21.5649 10.0307 20.2726 12.2461C19.4424 13.6702 17.6265 14.5061 16.0064 14.7138C15.7241 16.7417 13.5319 19 10.9999 19H10.9989C8.46686 18.9983 6.27539 16.7407 5.99331 14.7138C4.37224 14.5061 2.55728 13.6702 1.72709 12.2452C0.43531 10.0316 0.901213 7.62242 2.83529 6.51789C3.18351 6.32034 3.56242 6.18367 3.95451 6.09816C3.95015 6.08272 3.94531 6.06682 3.94048 6.05092C3.93389 6.02924 3.9273 6.00756 3.92191 5.98706L3.92164 5.98607C3.78333 5.4739 3.36509 3.92523 4.34228 2.64269C5.05078 1.71226 6.1279 1.42709 6.70817 1.27346L6.71038 1.27287C7.18731 1.14662 7.82361 1 8.49011 1C9.4919 1 10.3496 1.34251 11.0006 1.94701C11.6515 1.34251 12.5092 1 13.511 1C14.1775 1 14.8131 1.14662 15.2934 1.27382C15.8707 1.42542 16.9487 1.71037 17.6581 2.64198C18.6366 3.92527 18.2173 5.47501 18.0793 5.98532L18.0792 5.98541C18.0744 6.00263 18.0689 6.02043 18.0634 6.03833C18.0573 6.05836 18.0511 6.07852 18.0457 6.09816ZM14.7367 3.32014C13.6208 3.02358 12.3815 2.84214 11.9671 4.36711C11.5537 5.89303 12.1224 8.55142 13.2383 8.84656C14.3532 9.14241 15.5935 6.96368 16.0078 5.43776C16.4203 3.91184 15.8518 3.61505 14.7367 3.32014ZM7.26328 3.31943C8.37915 3.02263 9.61868 2.84214 10.0328 4.3664C10.4453 5.89232 9.87751 8.55166 8.76165 8.84585C7.6465 9.1417 6.40721 6.96226 5.99211 5.43705C5.5787 3.91184 6.14741 3.61434 7.26328 3.31943ZM3.58471 11.1864C4.29147 12.3994 6.77868 12.9707 7.66567 12.4655C8.42584 12.0334 7.75974 10.9468 7.10717 9.88232L7.10716 9.88231L7.10715 9.88229C6.99911 9.70604 6.89143 9.5304 6.79067 9.35844C6.0839 8.14448 4.79404 7.84697 3.90705 8.35221C3.01935 8.85912 2.87795 9.97477 3.58471 11.1864ZM10.9996 16.8805C9.40083 16.8795 8.10473 15.1952 8.10473 14.283C8.10473 13.518 9.01485 13.5374 10.2505 13.5638H10.2506C10.4895 13.5689 10.7406 13.5743 10.9996 13.5743C11.2616 13.5745 11.5154 13.5692 11.7568 13.5642L11.7569 13.5642C12.9884 13.5384 13.8945 13.5195 13.8945 14.283C13.8942 15.1942 12.5984 16.8805 10.9996 16.8805ZM14.3335 12.4662C15.2203 12.9707 17.7078 12.4001 18.4145 11.1871C19.1213 9.97572 18.9796 8.86006 18.0919 8.35316C17.2059 7.84863 15.9151 8.14542 15.2083 9.35938C15.1073 9.53202 14.9993 9.70835 14.8909 9.88527C14.2394 10.9488 13.5747 12.0338 14.3335 12.4662Z" fill="white"/>
<path d="M19.1625 6.51694L19.4104 6.0827L19.4092 6.08205L19.1625 6.51694ZM18.0457 6.09816L17.5638 5.96466L17.4225 6.47493L17.94 6.58686L18.0457 6.09816ZM20.2726 12.2461L19.8407 11.9942L19.8407 11.9943L20.2726 12.2461ZM16.0064 14.7138L15.9428 14.2179L15.5638 14.2665L15.5112 14.6449L16.0064 14.7138ZM10.9989 19L10.9986 19.5H10.9989V19ZM5.99331 14.7138L6.48854 14.6449L6.43587 14.2665L6.05686 14.2179L5.99331 14.7138ZM1.72709 12.2452L2.15912 11.9935L2.15893 11.9932L1.72709 12.2452ZM2.83529 6.51789L2.58857 6.083L2.58733 6.08371L2.83529 6.51789ZM3.95451 6.09816L4.06105 6.58667L4.58011 6.47347L4.43567 5.96222L3.95451 6.09816ZM3.94048 6.05092L3.46209 6.19631L3.46209 6.19631L3.94048 6.05092ZM3.92191 5.98706L4.40547 5.85986L4.40464 5.85676L3.92191 5.98706ZM3.92164 5.98607L4.40437 5.85577L4.40435 5.85571L3.92164 5.98607ZM4.34228 2.64269L4.73999 2.94572L4.74008 2.94561L4.34228 2.64269ZM6.70817 1.27346L6.58021 0.790112L6.5802 0.790112L6.70817 1.27346ZM6.71038 1.27287L6.58243 0.789523L6.58241 0.789528L6.71038 1.27287ZM11.0006 1.94701L10.6603 2.31339L11.0006 2.62936L11.3408 2.31339L11.0006 1.94701ZM15.2934 1.27382L15.1654 1.75716L15.1664 1.75743L15.2934 1.27382ZM17.6581 2.64198L17.2603 2.9449L17.2605 2.94515L17.6581 2.64198ZM18.0793 5.98532L17.5966 5.85472L17.5951 5.86038L18.0793 5.98532ZM18.0792 5.98541L18.5605 6.1214L18.5634 6.11035L18.0792 5.98541ZM18.0634 6.03833L17.5854 5.89188L17.5853 5.89191L18.0634 6.03833ZM11.9671 4.36711L11.4846 4.236L11.4845 4.23636L11.9671 4.36711ZM14.7367 3.32014L14.6082 3.80337L14.6088 3.80353L14.7367 3.32014ZM13.2383 8.84656L13.3665 8.36329L13.3661 8.36318L13.2383 8.84656ZM16.0078 5.43776L16.4904 5.5688L16.4905 5.56823L16.0078 5.43776ZM10.0328 4.3664L10.5155 4.23593L10.5153 4.2353L10.0328 4.3664ZM7.26328 3.31943L7.39104 3.80284L7.3918 3.80263L7.26328 3.31943ZM8.76165 8.84585L8.63418 8.36237L8.63343 8.36257L8.76165 8.84585ZM5.99211 5.43705L5.50953 5.56786L5.50966 5.56835L5.99211 5.43705ZM7.66567 12.4655L7.41861 12.0308L7.4182 12.031L7.66567 12.4655ZM3.58471 11.1864L4.01673 10.9346L4.0166 10.9344L3.58471 11.1864ZM7.10717 9.88232L6.67518 10.1343L6.68089 10.1436L7.10717 9.88232ZM7.10715 9.88229L7.53914 9.63029L7.53343 9.62097L7.10715 9.88229ZM6.79067 9.35844L6.35856 9.61001L6.35927 9.61122L6.79067 9.35844ZM3.90705 8.35221L3.65958 7.91775L3.65912 7.91802L3.90705 8.35221ZM10.9996 16.8805L10.9993 17.3805H10.9996V16.8805ZM10.2505 13.5638L10.2399 14.0638H10.2505V13.5638ZM10.2506 13.5638L10.2613 13.0638H10.2506V13.5638ZM10.9996 13.5743L11.0001 13.0743H10.9996V13.5743ZM11.7568 13.5642L11.7672 14.0641L11.7693 14.064L11.7568 13.5642ZM11.7569 13.5642L11.7465 13.0643L11.7444 13.0643L11.7569 13.5642ZM13.8945 14.283L14.3945 14.2831V14.283H13.8945ZM18.4145 11.1871L17.9826 10.9351L17.9825 10.9354L18.4145 11.1871ZM14.3335 12.4662L14.086 12.9006L14.0863 12.9008L14.3335 12.4662ZM18.0919 8.35316L18.3399 7.91896L18.3393 7.91867L18.0919 8.35316ZM15.2083 9.35938L15.6398 9.61195L15.6404 9.61095L15.2083 9.35938ZM14.8909 9.88527L14.4645 9.62408L14.4645 9.62408L14.8909 9.88527ZM19.4092 6.08205C19.0139 5.85777 18.5873 5.70373 18.1514 5.60946L17.94 6.58686C18.2883 6.66218 18.618 6.78291 18.9158 6.95183L19.4092 6.08205ZM20.7045 12.498C22.1019 10.1024 21.6446 7.35801 19.4104 6.0827L18.9146 6.95118C20.5538 7.88682 21.0278 9.95898 19.8407 11.9942L20.7045 12.498ZM16.07 15.2098C17.7738 14.9913 19.7663 14.1074 20.7046 12.4979L19.8407 11.9943C19.1185 13.233 17.4792 14.0209 15.9428 14.2179L16.07 15.2098ZM10.9999 19.5C12.4156 19.5 13.7119 18.8703 14.6831 17.9873C15.6504 17.108 16.3411 15.9358 16.5016 14.7828L15.5112 14.6449C15.3894 15.5197 14.8428 16.4906 14.0104 17.2474C13.182 18.0005 12.1162 18.5 10.9999 18.5V19.5ZM10.9989 19.5H10.9999V18.5H10.9989V19.5ZM5.49808 14.7828C5.65849 15.9353 6.349 17.1071 7.31601 17.9863C8.28702 18.8692 9.58301 19.4991 10.9986 19.5L10.9992 18.5C9.88274 18.4993 8.81699 17.9995 7.98874 17.2464C7.15648 16.4897 6.61022 15.5192 6.48854 14.6449L5.49808 14.7828ZM1.29506 12.4969C2.23328 14.1073 4.22481 14.9913 5.92976 15.2098L6.05686 14.2179C4.51966 14.0209 2.88128 13.2331 2.15912 11.9935L1.29506 12.4969ZM2.58733 6.08371C0.355781 7.35811 -0.101719 10.1034 1.29524 12.4972L2.15893 11.9932C0.972339 9.95985 1.44664 7.88672 3.08324 6.95208L2.58733 6.08371ZM3.84797 5.60964C3.41336 5.70442 2.9861 5.85748 2.58857 6.083L3.082 6.95278C3.38093 6.7832 3.71148 6.66291 4.06105 6.58667L3.84797 5.60964ZM3.46209 6.19631C3.4672 6.21312 3.47055 6.22423 3.47334 6.23409L4.43567 5.96222C4.42974 5.94122 4.42343 5.92052 4.41888 5.90554L3.46209 6.19631ZM3.43836 6.11427C3.4466 6.14558 3.45609 6.17658 3.46209 6.19631L4.41888 5.90554C4.4117 5.8819 4.40801 5.86955 4.40546 5.85986L3.43836 6.11427ZM3.43892 6.11637L3.43919 6.11737L4.40464 5.85676L4.40437 5.85577L3.43892 6.11637ZM3.94457 2.33967C2.80389 3.83678 3.30467 5.61925 3.43894 6.11643L4.40435 5.85571C4.26198 5.32854 3.92629 4.01368 4.73999 2.94572L3.94457 2.33967ZM6.5802 0.790112C6.00833 0.941519 4.76813 1.25813 3.94448 2.33978L4.74008 2.94561C5.33343 2.1664 6.24748 1.91266 6.83614 1.7568L6.5802 0.790112ZM6.58241 0.789528L6.58021 0.790112L6.83614 1.75681L6.83835 1.75622L6.58241 0.789528ZM8.49011 0.5C7.75651 0.5 7.06896 0.660728 6.58243 0.789523L6.83833 1.75623C7.30565 1.63252 7.89071 1.5 8.49011 1.5V0.5ZM11.3408 1.58063C10.593 0.886111 9.6119 0.5 8.49011 0.5V1.5C9.3719 1.5 10.1063 1.79892 10.6603 2.31339L11.3408 1.58063ZM13.511 0.5C12.3892 0.5 11.4082 0.886111 10.6603 1.58063L11.3408 2.31339C11.8948 1.79892 12.6292 1.5 13.511 1.5V0.5ZM15.4214 0.790486C14.9317 0.660779 14.2447 0.5 13.511 0.5V1.5C14.1103 1.5 14.6946 1.63247 15.1654 1.75716L15.4214 0.790486ZM18.0559 2.33907C17.2313 1.25613 15.9904 0.939888 15.4204 0.790215L15.1664 1.75743C15.7511 1.91095 16.6662 2.16462 17.2603 2.9449L18.0559 2.33907ZM18.5619 6.11591C18.6959 5.62051 19.1979 3.8368 18.0557 2.33882L17.2605 2.94515C18.0753 4.01374 17.7387 5.3295 17.5966 5.85473L18.5619 6.11591ZM18.5634 6.11035L18.5634 6.11026L17.5951 5.86038L17.5951 5.86047L18.5634 6.11035ZM18.5415 6.18478C18.5467 6.16787 18.5538 6.14476 18.5604 6.12137L17.5981 5.84945C17.5949 5.86049 17.5911 5.87298 17.5854 5.89188L18.5415 6.18478ZM18.5275 6.23166C18.5308 6.21965 18.535 6.20603 18.5415 6.18476L17.5853 5.89191C17.5796 5.91069 17.5714 5.93739 17.5638 5.96466L18.5275 6.23166ZM12.4496 4.49822C12.5361 4.17994 12.655 3.98885 12.7722 3.87118C12.8866 3.75619 13.0243 3.68601 13.1944 3.64929C13.5649 3.56929 14.0463 3.65402 14.6082 3.80337L14.8651 2.83692C14.3112 2.6897 13.615 2.53544 12.9833 2.67181C12.6523 2.74329 12.3327 2.89514 12.0634 3.16576C11.7967 3.4337 11.6053 3.79179 11.4846 4.236L12.4496 4.49822ZM13.3661 8.36318C13.2569 8.3343 13.1009 8.22811 12.9304 7.96487C12.7646 7.70881 12.6196 7.35546 12.5134 6.94357C12.299 6.11176 12.2713 5.15657 12.4497 4.49786L11.4845 4.23636C11.2496 5.10356 11.2995 6.24053 11.5451 7.19318C11.6689 7.67353 11.8495 8.13548 12.0911 8.50856C12.3282 8.87447 12.6617 9.21126 13.1104 9.32994L13.3661 8.36318ZM15.5253 5.30673C15.332 6.01867 14.9422 6.88914 14.4795 7.53381C14.2476 7.85699 14.0161 8.09698 13.8056 8.2374C13.5974 8.37632 13.4592 8.38787 13.3665 8.36329L13.1101 9.32984C13.5748 9.45317 14.0098 9.30333 14.3606 9.06926C14.7092 8.8367 15.0227 8.4921 15.292 8.11684C15.8318 7.36463 16.2693 6.38277 16.4904 5.5688L15.5253 5.30673ZM14.6088 3.80353C14.8835 3.87617 15.0933 3.94124 15.2558 4.01556C15.4154 4.08853 15.4993 4.15723 15.5474 4.22035C15.6287 4.32706 15.7223 4.5779 15.5251 5.30729L16.4905 5.56823C16.7058 4.77171 16.7214 4.11119 16.3428 3.61429C16.1609 3.37561 15.9195 3.21945 15.6717 3.10614C15.4269 2.99419 15.1474 2.91157 14.8645 2.83676L14.6088 3.80353ZM10.5153 4.2353C10.3947 3.79123 10.2033 3.43323 9.93667 3.16531C9.66738 2.89474 9.34784 2.74285 9.01682 2.6713C8.38512 2.53478 7.68891 2.68884 7.13476 2.83623L7.3918 3.80263C7.95352 3.65323 8.435 3.56864 8.80557 3.64873C8.97568 3.6855 9.11343 3.75573 9.22789 3.87074C9.345 3.98841 9.46389 4.17943 9.55031 4.49749L10.5153 4.2353ZM8.88911 9.32933C9.33811 9.21095 9.67173 8.8741 9.9087 8.5082C10.1503 8.13513 10.3308 7.67312 10.4545 7.19275C10.7 6.24001 10.7499 5.10295 10.5155 4.23593L9.55014 4.49687C9.72824 5.15576 9.70047 6.11133 9.48616 6.94329C9.38004 7.35527 9.23514 7.70863 9.06935 7.96461C8.89892 8.22776 8.74312 8.33365 8.63418 8.36237L8.88911 9.32933ZM5.50966 5.56835C5.73103 6.38176 6.16843 7.36352 6.70809 8.1158C6.9773 8.49107 7.29071 8.83575 7.63925 9.06839C7.99006 9.30255 8.42498 9.45247 8.88986 9.32913L8.63343 8.36257C8.54074 8.38716 8.40257 8.37559 8.19441 8.23665C7.98397 8.09619 7.75253 7.85615 7.52063 7.5329C7.05809 6.88812 6.66829 6.01755 6.47456 5.30575L5.50966 5.56835ZM7.13553 2.83603C6.85242 2.91085 6.57276 2.99352 6.32782 3.10554C6.07993 3.2189 5.83836 3.37514 5.65648 3.61388C5.27778 4.11099 5.2937 4.77161 5.50953 5.56786L6.4747 5.30624C6.27711 4.57729 6.37068 4.32655 6.45195 4.21988C6.50006 4.15673 6.58406 4.08796 6.74372 4.01495C6.90633 3.94058 7.11621 3.87547 7.39104 3.80284L7.13553 2.83603ZM7.4182 12.031C7.30554 12.0952 7.08491 12.1506 6.7552 12.1493C6.43737 12.1481 6.06635 12.0941 5.69319 11.989C4.91861 11.7708 4.2729 11.3743 4.01673 10.9346L3.15269 11.4381C3.60328 12.2114 4.55456 12.7071 5.42202 12.9515C5.86989 13.0777 6.33115 13.1477 6.75123 13.1493C7.15942 13.151 7.58231 13.0884 7.91315 12.8999L7.4182 12.031ZM6.68089 10.1436C7.01801 10.6936 7.31098 11.177 7.44191 11.5693C7.50646 11.7628 7.51088 11.8772 7.49976 11.9354C7.49409 11.9651 7.48647 11.9922 7.41861 12.0308L7.91274 12.9002C8.22496 12.7227 8.41914 12.452 8.48198 12.1231C8.53937 11.8228 8.47901 11.5181 8.39049 11.2528C8.21527 10.7277 7.84891 10.1356 7.53345 9.62101L6.68089 10.1436ZM6.67527 10.1342L6.67528 10.1343L7.53906 9.63039L7.53905 9.63037L6.67527 10.1342ZM6.67526 10.1342L6.67527 10.1342L7.53905 9.63037L7.53904 9.63035L6.67526 10.1342ZM6.35927 9.61122C6.463 9.78823 6.57333 9.96818 6.68087 10.1436L7.53343 9.62097C7.42488 9.44391 7.31987 9.27258 7.22206 9.10565L6.35927 9.61122ZM4.15453 8.78667C4.77132 8.43534 5.77061 8.60011 6.35856 9.61001L7.22277 9.10687C6.3972 7.68885 4.81677 7.2586 3.65958 7.91775L4.15453 8.78667ZM4.0166 10.9344C3.70105 10.3935 3.60262 9.92039 3.64454 9.56333C3.68457 9.22241 3.85319 8.95874 4.15499 8.78641L3.65912 7.91802C3.07321 8.25258 2.72727 8.8002 2.65137 9.44673C2.57735 10.0771 2.7616 10.7676 3.15282 11.4383L4.0166 10.9344ZM7.60473 14.283C7.60473 14.6182 7.71991 14.9746 7.88714 15.3013C8.05788 15.6349 8.3002 15.9717 8.5953 16.2732C9.17877 16.8693 10.0233 17.3799 10.9993 17.3805L10.9999 16.3805C10.3772 16.3801 9.77423 16.0481 9.30996 15.5737C9.08119 15.34 8.89956 15.0845 8.77732 14.8457C8.65157 14.6 8.60473 14.4039 8.60473 14.283H7.60473ZM10.2612 13.0639C9.67008 13.0513 9.05946 13.0346 8.60265 13.1392C8.36619 13.1934 8.10998 13.292 7.9115 13.4918C7.69845 13.7063 7.60473 13.9833 7.60473 14.283H8.60473C8.60473 14.2369 8.61153 14.2146 8.61428 14.2073C8.61641 14.2016 8.61788 14.1997 8.621 14.1965C8.63178 14.1857 8.68033 14.1473 8.82585 14.114C9.13303 14.0437 9.5953 14.0499 10.2399 14.0637L10.2612 13.0639ZM10.2506 13.0638H10.2505V14.0638H10.2506V13.0638ZM10.9996 13.0743C10.7468 13.0743 10.5009 13.069 10.2613 13.0639L10.2399 14.0637C10.4781 14.0688 10.7344 14.0743 10.9996 14.0743V13.0743ZM11.7463 13.0643C11.5043 13.0693 11.2558 13.0745 11.0001 13.0743L10.9991 14.0743C11.2674 14.0745 11.5266 14.0691 11.7672 14.0641L11.7463 13.0643ZM11.7444 13.0643L11.7443 13.0643L11.7693 14.064L11.7694 14.064L11.7444 13.0643ZM14.3945 14.283C14.3945 13.984 14.3013 13.7075 14.0889 13.4931C13.891 13.2932 13.6354 13.1946 13.3996 13.1403C12.9442 13.0356 12.3354 13.052 11.7465 13.0643L11.7674 14.0641C12.4099 14.0506 12.87 14.0446 13.1755 14.1149C13.3201 14.1481 13.368 14.1863 13.3784 14.1968C13.3814 14.1998 13.3829 14.2017 13.385 14.2073C13.3877 14.2147 13.3945 14.237 13.3945 14.283H14.3945ZM10.9996 17.3805C11.976 17.3805 12.8206 16.8694 13.4039 16.2731C13.699 15.9715 13.9413 15.6346 14.112 15.3011C14.2792 14.9744 14.3944 14.6181 14.3945 14.2831L13.3945 14.2828C13.3945 14.4035 13.3476 14.5997 13.2218 14.8455C13.0995 15.0844 12.9179 15.3399 12.6891 15.5738C12.2248 16.0484 11.622 16.3805 10.9996 16.3805V17.3805ZM17.9825 10.9354C17.7264 11.375 17.0807 11.7713 16.306 11.9894C15.9328 12.0945 15.5617 12.1485 15.2439 12.1497C14.9141 12.1511 14.6934 12.0957 14.5808 12.0316L14.0863 12.9008C14.417 13.0889 14.8398 13.1514 15.2479 13.1497C15.668 13.148 16.1292 13.0781 16.5771 12.952C17.4445 12.7077 18.3959 12.2122 18.8465 11.4388L17.9825 10.9354ZM17.844 8.78736C18.1458 8.95971 18.3145 9.22341 18.3546 9.56431C18.3965 9.92132 18.2982 10.3943 17.9826 10.9351L18.8464 11.439C19.2376 10.7685 19.4218 10.078 19.3477 9.44758C19.2717 8.80109 18.9257 8.25351 18.3399 7.91896L17.844 8.78736ZM15.6404 9.61095C16.2282 8.60128 17.2285 8.43685 17.8445 8.78766L18.3393 7.91867C17.1833 7.2604 15.6019 7.68957 14.7762 9.10782L15.6404 9.61095ZM15.3172 10.1465C15.4251 9.97035 15.5358 9.78968 15.6398 9.61195L14.7768 9.10682C14.6787 9.27436 14.5734 9.44634 14.4645 9.62408L15.3172 10.1465ZM14.5811 12.0317C14.5134 11.9932 14.5057 11.966 14.5 11.9362C14.4889 11.878 14.4933 11.7637 14.5577 11.5705C14.6883 11.1787 14.9807 10.6959 15.3172 10.1465L14.4645 9.62408C14.1496 10.1382 13.7839 10.7297 13.609 11.2543C13.5206 11.5194 13.4604 11.8238 13.5178 12.1239C13.5805 12.4524 13.7743 12.723 14.086 12.9006L14.5811 12.0317Z" fill="black"/>
</svg>
